<svg version="1.1" xmlns:i="http://ns.adobe.com/AdobeIllustrator/10.0/" xmlns="http://www.w3.org/2000/svg" xmlns:xlink="http://www.w3.org/1999/xlink" xmlns:sketch="http://www.bohemiancoding.com/sketch/ns" height="100%" width="100%" x="0px" y="0px" viewBox="0 0 640 480" xml:space="preserve" preserveAspectRatio="xMidYMid meet" class=""><rect x="0px" y="0px" width="100%" height="100%" fill="#ffffff"></rect><g class="logo-container-box logoContainerBox" transform="scale(1) translate(0,0.0000152587890625)"><g class="container_1" transform="scale(1) translate(220.109441280365,140.0456132888794)" fill="#fed4aa">
<g id="g10" transform="matrix(1.3333333,0,0,-1.3333333,0,533.33333)">
	<g id="g12">
		<g>
			<g id="g14">
				<g id="g20" transform="translate(384.6679,192.0927)">
					<path id="path22" class="st0" d="M-236.9,130.8c0-37-14.9-63.2-51.3-64.9c-29.9-1.4-94.4,2.6-94.4,39.7
						c0,19.4,20.2,40.6,40.1,59.8c17.8,17.1,31.5,32.8,47.8,34.6C-264.2,203.3-236.9,167.8-236.9,130.8"></path>
				</g>
			</g>
		</g>
	</g>
</g>

</g><g class="containerBody" transform="scale(1.12) translate(-34.285714285714334,23.372178213936934)"><g class="sampleIconBox" transform="scale(1) translate(0,0.000013732910161934342)"><g class="iconFrame" transform="scale(1) translate(219.94999253749847,32.43432106971741)" fill="#033c67"><g>
	<path class="st0" d="M198.4,104.5c-0.1-0.1,0-1,0.1-2.2c0-0.4,0-0.8,0-1.1c0-0.3,0-0.5,0-0.5c-0.5-0.2-0.9,1.3-1.3,3.8
		c-0.2,1.2-0.3,2.7-0.6,4.3c0-0.3,0-0.7,0-0.9c0.1-1.7,0-2.3-0.2-1.6c-0.1,0.4-0.2,1.1-0.3,2.2c-0.1,1.1-0.4,2.7-0.7,4.6
		c-0.9,5.8-2.5,12.7-5.1,19.9c-2.5,7.1-6.1,14.4-10.6,21.1c-4.1,5.9-8.9,11.2-14.2,16c1.9-1.8,3.7-3.6,5.4-5.5
		c7-7.8,12.3-16.4,15.4-23c0.3-0.8,0.7-1.6,1.1-2.4c0.3-0.8,0.7-1.5,0.9-2.2c0.5-1.3,0.9-2.6,1.3-3.5c0.7-2,0.9-3.1,0.9-3
		c-0.1,0-0.3,0.7-0.7,1.9c-0.1,0.3-0.2,0.6-0.3,0.9c-0.1,0.3-0.3,0.7-0.4,1.1c-0.3,0.8-0.7,1.7-1.1,2.6c-1.7,3.8-4.1,8.8-7.2,13.6
		c-0.8,1.2-1.6,2.4-2.3,3.6c-0.8,1.2-1.6,2.3-2.5,3.4c-0.8,1.1-1.7,2.1-2.5,3.1c-0.8,1-1.7,1.9-2.5,2.8c-0.4,0.4-0.7,0.9-1.1,1.3
		c-0.4,0.4-0.8,0.8-1.1,1.1c-0.7,0.7-1.3,1.4-1.9,2c-1.2,1.1-2,2-2.5,2.3c-0.3,0.3-0.7,0.6-1.1,1c-0.4,0.3-0.9,0.7-1.3,1.1
		c-0.9,0.8-2,1.7-3.2,2.6c-1.2,0.9-2.4,2-3.8,2.9c-0.7,0.5-1.4,1-2.1,1.5c-0.7,0.5-1.5,0.9-2.2,1.5c-0.7,0.4-1.5,1-2.3,1.5
		c-0.6,0.3-1.1,0.7-1.7,1c-9.3,4.9-19.3,8.2-29.6,9.7c-4.1,0.6-8.3,1-12.5,1c-2.1,0.1-4.2-0.1-6.3-0.1h-0.8l-0.8-0.1l-1.6-0.1
		l-1.6-0.1c-0.5-0.1-1.1-0.1-1.6-0.2c-2.1-0.3-4.1-0.5-6.2-0.9l-1.5-0.3c-0.5-0.1-1-0.2-1.5-0.3l-3-0.7c-4-1.1-8-2.3-11.8-3.9
		c-2-0.7-3.8-1.7-5.7-2.5c-0.9-0.4-1.8-0.9-2.8-1.4l-1.4-0.7c-0.4-0.2-0.9-0.5-1.3-0.8l-2.7-1.6l-2.6-1.7c-0.4-0.3-0.8-0.6-1.3-0.8
		l-1.3-0.9c-0.8-0.6-1.7-1.2-2.5-1.8c-1.6-1.3-3.3-2.6-4.8-4l-1.2-1l-0.6-0.5l-0.6-0.6l-2.2-2.2c-0.8-0.7-1.5-1.5-2.2-2.2
		c-0.7-0.7-1.4-1.5-2.1-2.3l-2-2.3l-1.9-2.5c-10.1-13.2-16.6-29.1-18.4-45.7l-0.2-1.6l-0.1-1.6l-0.2-3.1l-0.1-3.1l-0.1-1.6l0.1-1.6
		l0.1-3.1l0.2-3.1l0.1-1.6c0.1-0.5,0.2-1.1,0.2-1.6l0.4-3.1c1.3-8.3,3.7-16.4,7.2-24.1c7-15.3,18.3-28.8,32.4-38.4
		c0.9-0.6,1.8-1.2,2.7-1.7c0.4-0.3,0.9-0.6,1.3-0.8l1.4-0.8c0.9-0.5,1.8-1.1,2.8-1.6l2.8-1.5c0.4-0.2,0.9-0.4,1.5-0.7l1.5-0.7
		c0.9-0.4,2-0.9,3-1.3l3-1.2l3.1-1.1c0.6-0.2,1.1-0.3,1.6-0.5l1.6-0.4c1.1-0.3,2.1-0.6,3.1-0.8l3.2-0.7c0.6-0.2,1.1-0.2,1.6-0.3
		l1.6-0.3c2.1-0.4,4.2-0.7,6.4-0.9c1.1-0.1,2.2-0.2,3.2-0.3l1.6-0.1l1.6-0.1c5.6-0.2,11.4,0.1,17.3,0.9c5.8,0.8,11.7,2.2,17.4,4.2
		c5.8,2,11.4,4.5,16.8,7.6c5.4,3.1,10.5,6.8,15.2,10.9c4.5,3.9,8.6,8.3,12.3,13c1.3,1.8,2.7,3.8,3.9,5.8c2.8,4.4,5,8.9,6.6,12.4
		s2.4,6,2.5,6.3c-0.1-0.6-0.4-1.7-0.9-3.2c-0.3-0.7-0.6-1.6-0.9-2.5c-0.3-0.9-0.7-1.9-1.2-2.9c-0.3-0.8-0.8-1.7-1.2-2.6
		c0.6,1.2,1.2,2.3,1.8,3.5c5.5,11.2,8.5,23.3,9.3,35.1c0.2,4.7,0.4,4.5,0.4,2.7c0-0.9,0.1-2.1,0.1-3.4c0-1.2-0.1-2.3-0.1-3
		c-0.1-2.3-0.4-4.6-0.7-6.8c-0.2-1.1-0.4-2.2-0.6-3.3c-0.1-0.5-0.2-1.1-0.3-1.6c-0.2-0.6-0.3-1.1-0.4-1.6c-0.2-1.1-0.5-2.1-0.7-3.2
		c-0.3-1.1-0.6-2.1-0.9-3.1c-0.2-0.5-0.3-1.1-0.4-1.6s-0.3-1-0.5-1.5c-0.3-1-0.7-2-1.1-3c-3.1-7.9-7-15.2-11.9-21.9
		c-2.4-3.4-5.1-6.5-8-9.5c-0.8-0.7-1.5-1.5-2.2-2.2l-0.6-0.6l-0.6-0.6l-1.2-1.1c-1.6-1.5-3.2-2.7-4.9-4.1c-6.7-5.3-14.3-10-23-13.6
		c-0.9-0.4-2-0.7-2.9-1.1c-0.9-0.3-1.9-0.7-2.9-1.1c-2-0.6-3.9-1.3-5.9-1.8c-4-1.2-8-1.9-12-2.5c-8-1.1-16.2-1.2-24.2-0.4l-3,0.4
		l-1.5,0.2l-1.5,0.3l-3,0.6c-0.9,0.2-2,0.4-2.9,0.7c-2,0.4-3.9,1-5.8,1.6c-1,0.3-1.9,0.6-2.8,0.9l-1.4,0.5l-0.8,0.2l-0.7,0.3
		c-7.4,2.8-14.5,6.5-20.8,11L46,25.3l-2.3,1.8L42.5,28c-0.4,0.3-0.7,0.6-1.1,0.9l-2.2,1.9c-2.8,2.7-5.6,5.4-8.2,8.3
		c-2.6,2.9-4.9,6-7,9.2l-1.6,2.4l-0.8,1.2l-0.7,1.2l-1.5,2.5c-0.4,0.8-0.9,1.7-1.3,2.6c-0.9,1.7-1.7,3.5-2.5,5.2
		c-0.4,0.8-0.8,1.7-1.1,2.6c-0.4,0.9-0.7,1.8-1.1,2.7l-0.9,2.7l-0.4,1.3l-0.4,1.3l-0.8,2.7c-0.3,0.9-0.4,1.8-0.7,2.7
		C8.5,86.9,7.8,94.5,7.9,102c0.1,13,3,25.6,8,37.1c5,11.4,12.3,21.7,21,30.2c8.7,8.5,18.9,15.1,29.9,19.7c10.9,4.5,22.7,7,34.3,7.1
		c11.3,0.2,22.7-1.5,33.3-5.1c-0.8,0.3-1.5,0.6-2.3,0.9c-1.6,0.6-3.2,1.2-4.9,1.7c-0.8,0.2-1.7,0.5-2.5,0.7
		c-0.8,0.2-1.6,0.5-2.4,0.7c-1.6,0.3-3.2,0.8-4.6,1.1c-1.5,0.3-2.8,0.6-4.1,0.8c-1.3,0.2-2.5,0.3-3.5,0.5c-0.5,0.1-0.9,0.2-1.4,0.2
		c-0.4,0.1-0.8,0.1-1.1,0.1c-0.7,0.1-1.2,0.2-1.4,0.2c-0.5,0.1-0.1,0.1,1.6-0.1c0.8-0.1,1.9-0.2,3.4-0.4c0.7-0.1,1.5-0.2,2.4-0.3
		c0.9-0.1,1.8-0.3,2.9-0.5c6.4-1.2,12.3-2.9,17.9-5.1c3.3-1.3,6.5-2.7,9.6-4.3c8.7-4.1,16.9-9.5,24-16c9-8.2,16.5-18.2,21.8-29.4
		c5.4-11.1,8.4-23.5,9-36C198.7,104.2,198.5,105,198.4,104.5z"></path>
	<path class="st0" d="M197.3,100.2C197.5,99,197.1,101.9,197.3,100.2L197.3,100.2z"></path>
	<path class="st0" d="M99.2,197.2c-0.8,0-1.8-0.1-3-0.1c-1.2-0.1-2.5-0.1-4-0.2c-0.7-0.1-1.5-0.1-2.3-0.2c-0.4-0.1-0.8-0.1-1.2-0.1
		c-0.4-0.1-0.8-0.1-1.3-0.2c-6.8-0.8-15.4-2.5-23.5-5.6c-1-0.4-2-0.8-3-1.2s-2-0.8-3-1.3c-0.4-0.2-0.9-0.4-1.5-0.7
		c-0.5-0.3-1-0.5-1.5-0.7c-0.9-0.4-1.8-0.9-2.8-1.4c-3.6-2-7-4-9.9-6c-0.7-0.5-1.4-1-2.1-1.5c-0.7-0.5-1.3-1-1.9-1.5
		c-0.6-0.5-1.2-0.9-1.7-1.3c-0.6-0.4-1.1-0.8-1.5-1.2c-0.9-0.8-1.7-1.5-2.4-2c-0.6-0.6-1.1-1.1-1.5-1.3c-0.6-0.5-1.1-1-1.6-1.5
		c-0.5-0.5-0.9-1-1.4-1.5c-0.8-0.9-1.7-1.8-2.5-2.6c-1.5-1.7-2.7-3.1-3.7-4.3c-1-1.2-1.8-2.1-2.3-2.9s-0.9-1.3-1.2-1.6
		c-0.4-0.6-0.3-0.4,0.3,0.4c0.3,0.4,0.7,1.1,1.2,1.8c0.6,0.7,1.2,1.6,2,2.5c0.8,1,1.7,2,2.6,3.1c0.5,0.6,0.9,1.2,1.5,1.7
		c0.6,0.6,1.1,1.2,1.7,1.8c2.3,2.5,5,4.9,7.9,7.4c5.8,4.9,12.6,9.1,18.3,12c0.3,0.1,0.7,0.3,1.2,0.6c0.3,0.1,0.6,0.3,0.9,0.4
		s0.7,0.3,1.1,0.5c0.8,0.3,1.7,0.7,2.6,1.2c0.4,0.2,0.9,0.4,1.5,0.6c0.6,0.2,1.1,0.4,1.7,0.7c4.6,1.8,10.5,3.6,16.3,4.7
		c5.8,1.2,11.6,1.6,15.6,1.7c4.1,0.1,6.6-0.1,6-0.2C100.7,197.3,100.1,197.3,99.2,197.2z"></path>
	<path class="st0" d="M12.2,144.6c-0.2-0.4-0.4-0.9-0.7-1.5c-0.3-0.6-0.6-1.2-0.9-1.8c-0.3-0.7-0.6-1.4-0.9-2.1
		c-0.3-0.7-0.7-1.5-1-2.3c-0.3-0.8-0.7-1.6-1-2.5c-0.2-0.4-0.3-0.8-0.5-1.3l-0.4-1.3C4.2,125,2.8,118,2.8,117.6
		c-0.2-1.1-0.4-2.1-0.6-3c-0.1-0.9-0.2-1.7-0.3-2.5c-0.2-1.4-0.4-2.5-0.4-3.2c-0.2-1.5-0.2-1.6-0.2-0.8c0,0.4,0.1,1.1,0.1,1.9
		c0.1,0.8,0.2,1.8,0.3,3c0.1,0.6,0.1,1.2,0.2,1.9c0.1,0.7,0.2,1.3,0.3,2.1c0.1,0.7,0.3,1.5,0.4,2.2c0.1,0.7,0.3,1.5,0.5,2.3
		c0.2,0.8,0.4,1.6,0.6,2.4c0.2,0.8,0.4,1.6,0.7,2.4c0.2,0.8,0.4,1.6,0.7,2.5c0.2,0.8,0.5,1.6,0.8,2.4c0.2,0.8,0.5,1.6,0.8,2.3
		c0.3,0.8,0.6,1.5,0.9,2.2c0.3,0.7,0.6,1.5,0.8,2.1c0.3,0.7,0.6,1.3,0.9,2c1.1,2.5,2.2,4.4,2.9,5.6c0.7,1.2,1.1,1.6,0.8,1
		C12.9,146.2,12.6,145.6,12.2,144.6z"></path>
	<path class="st0" d="M1.4,102.5c0.1-0.4,0.1-1.2,0.1-2.1C1.5,101.3,1.5,102,1.4,102.5z"></path>
	<path class="st0" d="M1.5,99.5c0.1-0.5,0.1-1,0.1-1.6C1.5,98.5,1.5,99,1.5,99.5z"></path>
	<path class="st0" d="M4.4,74.1C4.7,72.8,5,71.7,5.2,71s0.3-1.1,0.3-1.1C5.4,70.2,5.2,70.6,5,71c-0.1,0.4-0.3,0.9-0.4,1.5
		s-0.3,1.2-0.5,1.8c-0.2,0.7-0.4,1.3-0.5,2.1c-0.1,0.7-0.3,1.5-0.4,2.3c-0.2,0.8-0.3,1.6-0.4,2.5c-0.1,0.8-0.2,1.7-0.3,2.6
		c-0.1,0.4-0.1,0.8-0.2,1.3c-0.1,0.4-0.1,0.8-0.1,1.3c-0.4,3.5-0.5,7-0.6,9.9c0,0.7,0,1.3,0,1.8c0.1-3.6,0.3-8.7,0.9-13.5
		C3,80.6,3.7,76.8,4.4,74.1z"></path>
	<path class="st0" d="M8.9,62.8c0.1-0.2,0.2-0.4,0.4-0.8c0.2-0.3,0.4-0.8,0.6-1.3c0.2-0.5,0.5-1.1,0.8-1.7c0.3-0.6,0.6-1.3,0.9-2
		c0.3-0.7,0.7-1.3,1-2.1c0.3-0.7,0.7-1.4,1.1-2.1c0.8-1.3,1.5-2.7,2.1-3.7c1.3-2,2.3-3.7,3.3-5.1c0.9-1.3,1.7-2.5,2.3-3.3
		c1.2-1.7,1.8-2.5,1.8-2.5c0-0.1-0.5,0.6-1.3,1.6c-0.4,0.6-0.9,1.2-1.5,2c-0.6,0.7-1.1,1.6-1.8,2.5c-2.6,3.7-5.4,8.5-7.2,12.3
		C9.6,60.6,8.5,63.4,8.9,62.8z"></path>
	<path class="st0" d="M192.5,120.6c0.6-1.2,1.3-8.7,0.9-7.4c-0.2,0.7-0.5,2.8-0.7,4.6c-0.1,0.4-0.1,0.9-0.2,1.3
		c-0.1,0.4-0.1,0.7-0.2,1C192.4,120.7,192.4,120.9,192.5,120.6z"></path>
	<path class="st0" d="M30,31.4c0.4-0.3,1.6-1.4,3.1-2.7c0.7-0.7,1.6-1.5,2.5-2.2c0.4-0.4,0.9-0.8,1.3-1.2c0.4-0.4,0.9-0.8,1.4-1.2
		c0.9-0.7,1.8-1.5,2.7-2.2c0.9-0.7,1.7-1.3,2.4-1.8c0.3-0.2,0.7-0.4,0.9-0.7s0.5-0.4,0.7-0.5c0.4-0.3,0.5-0.4,0.6-0.4
		c1.1-0.7,1.9-1.3,2.6-1.7c0.7-0.4,1.1-0.7,1.5-0.9c0.7-0.4,0.6-0.4,0.1-0.1c-0.6,0.3-1.6,0.8-2.8,1.7c-0.6,0.4-1.3,0.8-2.1,1.3
		c-0.7,0.5-1.5,1.1-2.3,1.7c-0.8,0.6-1.7,1.2-2.5,1.8c-0.8,0.7-1.7,1.3-2.5,2c-0.8,0.6-1.6,1.3-2.3,2s-1.4,1.2-2,1.8
		c-1.2,1.2-2.2,2.1-2.7,2.7C29.9,31.4,29.7,31.6,30,31.4z"></path>
	<path class="st0" d="M67.2,8.4C68.1,8.1,69,7.8,70,7.5c4-1.2,8.9-2.5,13.7-3.4c1.2-0.2,2.5-0.4,3.6-0.6c0.6-0.1,1.2-0.2,1.7-0.3
		c0.6-0.1,1.2-0.1,1.7-0.2C92,2.9,93,2.8,94.1,2.7c1-0.1,2-0.1,2.9-0.2c1.8-0.1,3.4-0.1,4.5-0.1c1.1,0,1.8,0.1,2,0.1
		c-1.2-0.1-4.5-0.4-8.7-0.2c-4.3,0.3-9.5,0.8-14.5,1.9c-1.3,0.2-2.5,0.6-3.7,0.9c-1.2,0.3-2.3,0.6-3.5,0.9c-1.1,0.3-2.2,0.7-3.2,1
		c-1,0.3-2,0.7-2.8,1C65.4,8.7,64,9.4,63,9.8c-0.9,0.4-1.5,0.7-1.5,0.7c0.7-0.2,1.8-0.6,3.3-1.2C65.6,9,66.3,8.7,67.2,8.4z"></path>
	<path class="st0" d="M118.7,5.2c0.2,0.1,0.8,0.3,1.7,0.4c0.4,0.1,0.9,0.2,1.5,0.3c0.6,0.1,1.2,0.3,1.8,0.4c1.2,0.4,2.7,0.8,4.2,1.2
		c1.5,0.5,3.1,1,4.6,1.6c1.5,0.6,3.1,1.1,4.5,1.7c1.4,0.6,2.7,1.2,3.9,1.7c2.2,1.1,3.8,1.8,4,2c1.6,0.8,2.8,1.5,3.7,2.1
		c1,0.5,1.7,0.9,2.1,1.2c0.9,0.6,0.9,0.6,0.3,0.1c-0.3-0.2-0.8-0.6-1.4-0.9c-0.6-0.4-1.4-0.8-2.3-1.3c-0.4-0.2-0.9-0.5-1.4-0.8
		c-0.2-0.2-0.4-0.3-0.7-0.4c-0.2-0.1-0.5-0.3-0.8-0.4c-1.1-0.5-2.2-1.1-3.5-1.7c-1.2-0.5-2.5-1.1-3.8-1.7c-1.3-0.6-2.7-1.1-4-1.6
		c-0.3-0.2-0.7-0.3-1-0.4c-0.3-0.1-0.7-0.2-1-0.3c-0.6-0.2-1.3-0.4-1.9-0.6c-0.6-0.2-1.2-0.4-1.8-0.6c-0.6-0.2-1.2-0.3-1.7-0.5
		c-1.1-0.3-2.2-0.6-3.1-0.8c-0.9-0.2-1.7-0.4-2.3-0.5C118.9,5.1,118.3,5.1,118.7,5.2z"></path>
	<path class="st0" d="M98.9,5.3c-0.6,0.1-1.2,0.1-1.6,0.1c-0.8,0.1-1.1,0.1-0.7,0.2c0.5,0.1,2,0,3.9-0.1c1,0.1,2.1,0.1,3.2,0.1
		c1.2,0.1,2.3,0.2,3.5,0.2c1.2,0.1,2.3,0.2,3.4,0.3c1.1,0.1,2.1,0.2,2.9,0.3c1.7,0.3,2.5,0.4,2.6,0.4c0.6,0.1,1.1,0.2,1.6,0.3
		c0.5,0.1,0.9,0.2,1.3,0.3c0.8,0.2,1.3,0.3,1.7,0.3c0.7,0.1,0.7,0.1,0.1-0.1c-0.6-0.2-1.7-0.4-3.1-0.8c-1.5-0.2-3.2-0.6-5.2-0.9
		c-1.9-0.2-4-0.5-6-0.6c-1-0.1-2-0.1-2.9-0.2s-1.8-0.1-2.6-0.1C100.3,5.3,99.5,5.3,98.9,5.3z"></path>
	<path class="st0" d="M193.2,95.1c0.1,0.8,0.1,1.6,0.1,2.3c0.1,1.3,0.1,2.2,0.1,2.5c0.1-0.7,0.1-2,0.1-3.7c0-0.4,0-0.8,0-1.3
		c-0.1-0.5-0.1-1-0.1-1.5c-0.1-1-0.2-2.2-0.3-3.4c-0.5-4.7-1.7-10.6-3.4-16c-1.7-5.5-3.9-10.7-5.8-14.4c-1-1.9-1.8-3.5-2.5-4.6
		c-0.7-1.1-1.1-1.8-1.1-1.9c0.3,0.8,1,2.1,1.7,3.5c0.4,0.8,0.8,1.7,1.3,2.6c0.4,0.9,0.9,2,1.4,3.1c2,4.4,4,9.7,5.4,15.1
		c0.3,1.3,0.7,2.7,1,4c0.3,1.3,0.5,2.6,0.8,3.9c0.4,2.5,0.8,4.9,1,7C193,93.2,193.1,94.2,193.2,95.1z"></path>
</g>
</g><g class="sampleIcons_1" transform="scale(2.4366471191321377) translate(111.97628383159636,74.95776046752931)" fill="#f46902"><path d="M21.74 0.72L40.25-40.32L39.46-40.32L26.21-11.23L13.03-40.32L1.08-40.32Z"></path></g></g><g class="sampleTexts_1" transform="scale(1) translate(-0.00000762939453125,-0.000006103515630684342)"><g class="logo--name svgLogoName_1 logoNameBox" transform="scale(1) translate(210.7500006109476,297.75999984741213)" fill="#033c67"><path d="M19.86-16.35L22.11-15.68L24.47-16.35L26.58-18.42L33.47-44.30L29.39-45L23.03-19.86L22.25-19.58L21.30-19.79L14.98-45L10.86-44.30L17.79-18.42L19.86-16.35ZM15.40-48.16L26.23-48.16L26.23-48.16Q29.78-48.16 32.66-47.11L32.66-47.11L32.66-47.11Q35.54-46.05 37.56-44.23L37.56-44.23L37.56-44.23Q39.59-42.40 40.68-39.96L40.68-39.96L40.68-39.96Q41.77-37.51 41.77-34.77L41.77-34.77L41.77-13.39L41.77-13.39Q41.77-10.65 40.68-8.21L40.68-8.21L40.68-8.21Q39.59-5.77 37.56-3.94L37.56-3.94L37.56-3.94Q35.54-2.11 32.66-1.05L32.66-1.05L32.66-1.05Q29.78 0 26.23 0L26.23 0L15.40 0L15.40 0Q11.85 0 8.96-1.05L8.96-1.05L8.96-1.05Q6.08-2.11 4.06-3.94L4.06-3.94L4.06-3.94Q2.04-5.77 0.95-8.21L0.95-8.21L0.95-8.21Q-0.14-10.65-0.14-13.39L-0.14-13.39L-0.14-34.77L-0.14-34.77Q-0.14-37.51 0.95-39.96L0.95-39.96L0.95-39.96Q2.04-42.40 4.06-44.23L4.06-44.23L4.06-44.23Q6.08-46.05 8.96-47.11L8.96-47.11L8.96-47.11Q11.85-48.16 15.40-48.16L15.40-48.16ZM67.39-48.16L78.22-48.16L78.22-48.16Q81.77-48.16 84.66-47.11L84.66-47.11L84.66-47.11Q87.54-46.05 89.56-44.23L89.56-44.23L89.56-44.23Q91.58-42.40 92.67-39.96L92.67-39.96L92.67-39.96Q93.76-37.51 93.76-34.77L93.76-34.77L93.76-13.39L93.76-13.39Q93.76-10.65 92.67-8.21L92.67-8.21L92.67-8.21Q91.58-5.77 89.56-3.94L89.56-3.94L89.56-3.94Q87.54-2.11 84.66-1.05L84.66-1.05L84.66-1.05Q81.77 0 78.22 0L78.22 0L67.39 0L67.39 0Q63.84 0 60.96-1.05L60.96-1.05L60.96-1.05Q58.08-2.11 56.06-3.94L56.06-3.94L56.06-3.94Q54.04-5.77 52.95-8.21L52.95-8.21L52.95-8.21Q51.86-10.65 51.86-13.39L51.86-13.39L51.86-34.77L51.86-34.77Q51.86-37.51 52.95-39.96L52.95-39.96L52.95-39.96Q54.04-42.40 56.06-44.23L56.06-44.23L56.06-44.23Q58.08-46.05 60.96-47.11L60.96-47.11L60.96-47.11Q63.84-48.16 67.39-48.16L67.39-48.16ZM73.90-42.01L72.74-44.44L70.80-45L66.20-45L63.25-44.51L61.00-42.26L61.00-15.93L64.76-15.93L64.76-40.96L64.76-40.96Q65.25-41.06 65.64-41.10L65.64-41.10L65.64-41.10Q66.02-41.13 66.48-41.27L66.48-41.27L70.49-41.27L70.49-41.27Q70.88-41.13 71.24-41.10L71.24-41.10L71.24-41.10Q71.61-41.06 72-40.96L72-40.96L72-26.05L75.76-26.05L75.76-40.96L77.27-41.27L81.32-41.27L81.32-41.27Q81.74-41.13 82.16-41.10L82.16-41.10L82.16-41.10Q82.58-41.06 83.04-40.96L83.04-40.96L83.04-15.93L86.77-15.93L86.77-42.26L84.55-44.51L81.60-45L76.99-45L75.09-44.44L73.90-42.01ZM120.69-16.35L124.17-15.96L124.17-23.98L124.17-39.38L124.17-42.33L121.78-44.58L118.27-45L110.25-45L106.14-44.51L107.02-40.68L110.32-41.34L118.16-41.34L120.27-40.89L120.76-39.02L120.76-30.83L118.27-31.25L110.25-31.25L106.73-30.73L104.48-28.51L103.99-25.63L103.99-21.52L104.48-18.56L106.73-16.35L110.25-15.93L117.95-15.93L120.69-16.35ZM120.76-21.90L120.76-20.00L118.02-19.65L110.46-19.65L108.25-20.00L107.75-22.11L107.75-25.14L108.04-27.14L110.46-27.49L118.09-27.49L120.76-27.21L120.76-21.90ZM109.02-48.16L119.85-48.16L119.85-48.16Q123.40-48.16 126.28-47.11L126.28-47.11L126.28-47.11Q129.16-46.05 131.19-44.23L131.19-44.23L131.19-44.23Q133.21-42.40 134.30-39.96L134.30-39.96L134.30-39.96Q135.39-37.51 135.39-34.77L135.39-34.77L135.39-13.39L135.39-13.39Q135.39-10.65 134.30-8.21L134.30-8.21L134.30-8.21Q133.21-5.77 131.19-3.94L131.19-3.94L131.19-3.94Q129.16-2.11 126.28-1.05L126.28-1.05L126.28-1.05Q123.40 0 119.85 0L119.85 0L109.02 0L109.02 0Q105.47 0 102.59-1.05L102.59-1.05L102.59-1.05Q99.70-2.11 97.68-3.94L97.68-3.94L97.68-3.94Q95.66-5.77 94.57-8.21L94.57-8.21L94.57-8.21Q93.48-10.65 93.48-13.39L93.48-13.39L93.48-34.77L93.48-34.77Q93.48-37.51 94.57-39.96L94.57-39.96L94.57-39.96Q95.66-42.40 97.68-44.23L97.68-44.23L97.68-44.23Q99.70-46.05 102.59-47.11L102.59-47.11L102.59-47.11Q105.47-48.16 109.02-48.16L109.02-48.16ZM150.64-48.16L161.47-48.16L161.47-48.16Q165.02-48.16 167.91-47.11L167.91-47.11L167.91-47.11Q170.79-46.05 172.81-44.23L172.81-44.23L172.81-44.23Q174.83-42.40 175.92-39.96L175.92-39.96L175.92-39.96Q177.01-37.51 177.01-34.77L177.01-34.77L177.01-13.39L177.01-13.39Q177.01-10.65 175.92-8.21L175.92-8.21L175.92-8.21Q174.83-5.77 172.81-3.94L172.81-3.94L172.81-3.94Q170.79-2.11 167.91-1.05L167.91-1.05L167.91-1.05Q165.02 0 161.47 0L161.47 0L150.64 0L150.64 0Q147.09 0 144.21-1.05L144.21-1.05L144.21-1.05Q141.33-2.11 139.31-3.94L139.31-3.94L139.31-3.94Q137.29-5.77 136.20-8.21L136.20-8.21L136.20-8.21Q135.11-10.65 135.11-13.39L135.11-13.39L135.11-34.77L135.11-34.77Q135.11-37.51 136.20-39.96L136.20-39.96L136.20-39.96Q137.29-42.40 139.31-44.23L139.31-44.23L139.31-44.23Q141.33-46.05 144.21-47.11L144.21-47.11L144.21-47.11Q147.09-48.16 150.64-48.16L150.64-48.16ZM162.74-26.51L163.27-24.61L163.27-15.93L166.99-15.93L166.99-25.00L165.76-28.23L161.75-29.67L165.62-31.54L166.71-34.70L166.71-38.60L166.29-41.55L163.97-44.51L160.45-45L147.34-45L147.34-15.93L151.10-15.93L151.10-27.63L160.24-27.63L162.74-26.51ZM151.10-41.27L160.24-41.27L162.74-40.18L162.98-38.14L162.98-34.42L162.46-32.48L160.24-31.39L151.10-31.39L151.10-41.27ZM209.78-41.27L209.78-45L189.46-45L189.46-41.27L197.75-41.27L197.75-15.93L201.52-15.93L201.52-41.27L209.78-41.27ZM192.27-48.16L203.10-48.16L203.10-48.16Q206.65-48.16 209.53-47.11L209.53-47.11L209.53-47.11Q212.41-46.05 214.44-44.23L214.44-44.23L214.44-44.23Q216.46-42.40 217.55-39.96L217.55-39.96L217.55-39.96Q218.64-37.51 218.64-34.77L218.64-34.77L218.64-13.39L218.64-13.39Q218.64-10.65 217.55-8.21L217.55-8.21L217.55-8.21Q216.46-5.77 214.44-3.94L214.44-3.94L214.44-3.94Q212.41-2.11 209.53-1.05L209.53-1.05L209.53-1.05Q206.65 0 203.10 0L203.10 0L192.27 0L192.27 0Q188.72 0 185.84-1.05L185.84-1.05L185.84-1.05Q182.95-2.11 180.93-3.94L180.93-3.94L180.93-3.94Q178.91-5.77 177.82-8.21L177.82-8.21L177.82-8.21Q176.73-10.65 176.73-13.39L176.73-13.39L176.73-34.77L176.73-34.77Q176.73-37.51 177.82-39.96L177.82-39.96L177.82-39.96Q178.91-42.40 180.93-44.23L180.93-44.23L180.93-44.23Q182.95-46.05 185.84-47.11L185.84-47.11L185.84-47.11Q188.72-48.16 192.27-48.16L192.27-48.16Z"></path></g><g id="" class="logo--name svgSloganText_1 sloganBox" transform="scale(1) translate(257.10999846458435,341.7100004196167)" fill="#f46902"><path d="M3.82-8.23L5.71-8.23L5.71-10.10L3.82-10.10L3.82-12.60C3.82-12.96 4.13-13.32 4.51-13.32L5.95-13.32L5.95-15.31L3.82-15.31C2.57-15.31 1.54-14.28 1.54-13.03L1.54-10.10L0.24-10.10L0.24-8.23L1.54-8.23L1.54 2.74C1.54 3.10 1.22 3.46 0.84 3.46L0.29 3.46L0.29 5.45L1.54 5.45C2.78 5.45 3.82 4.42 3.82 3.17ZM7.22-2.02C7.22-0.77 8.23 0.24 9.50 0.24L11.71 0.24C12.98 0.24 13.99-0.77 13.99-2.02L13.99-3.38L11.90-3.38L11.90-2.52C11.90-2.16 11.62-1.80 11.23-1.80L10.08-1.80C9.70-1.80 9.41-2.16 9.41-2.52L9.41-4.56L13.99-4.56L13.99-8.06C13.99-9.31 12.98-10.34 11.71-10.34L9.50-10.34C8.23-10.34 7.22-9.31 7.22-8.06L7.22-2.02ZM9.41-6.02L9.41-7.58C9.41-7.94 9.70-8.28 10.08-8.28L11.23-8.28C11.62-8.28 11.90-7.94 11.90-7.58L11.90-6.02ZM16.51-2.02C16.51-0.77 17.52 0.24 18.79 0.24L21 0.24C22.27 0.24 23.28-0.77 23.28-2.02L23.28-3.38L21.19-3.38L21.19-2.52C21.19-2.16 20.90-1.80 20.52-1.80L19.37-1.80C18.98-1.80 18.70-2.16 18.70-2.52L18.70-4.56L23.28-4.56L23.28-8.06C23.28-9.31 22.27-10.34 21-10.34L18.79-10.34C17.52-10.34 16.51-9.31 16.51-8.06L16.51-2.02ZM18.70-6.02L18.70-7.58C18.70-7.94 18.98-8.28 19.37-8.28L20.52-8.28C20.90-8.28 21.19-7.94 21.19-7.58L21.19-6.02ZM30.17 0L30.17-2.11L28.73-2.11C28.34-2.11 28.06-2.47 28.06-2.83L28.06-15.31L25.78-15.31L25.78-2.28C25.78-1.03 26.78 0 28.06 0L30.17 0ZM38.54-8.23L40.44-8.23L40.44-10.10L38.54-10.10L38.54-12.60C38.54-12.96 38.86-13.32 39.24-13.32L40.68-13.32L40.68-15.31L38.54-15.31C37.30-15.31 36.26-14.28 36.26-13.03L36.26-10.10L34.97-10.10L34.97-8.23L36.26-8.23L36.26 2.74C36.26 3.10 35.95 3.46 35.57 3.46L35.02 3.46L35.02 5.45L36.26 5.45C37.51 5.45 38.54 4.42 38.54 3.17ZM44.23 0L44.23-7.27C44.23-7.73 44.59-8.11 45.02-8.11L46.37-8.11L46.37-10.25L45.72-10.25C45.00-10.25 44.42-9.77 44.18-9.43L44.04-10.10L41.95-10.10L41.95 0ZM47.93-2.02C47.93-0.77 48.94 0.24 50.21 0.24L52.42 0.24C53.69 0.24 54.70-0.77 54.70-2.02L54.70-3.38L52.61-3.38L52.61-2.52C52.61-2.16 52.32-1.80 51.94-1.80L50.78-1.80C50.40-1.80 50.11-2.16 50.11-2.52L50.11-4.56L54.70-4.56L54.70-8.06C54.70-9.31 53.69-10.34 52.42-10.34L50.21-10.34C48.94-10.34 47.93-9.31 47.93-8.06L47.93-2.02ZM50.11-6.02L50.11-7.58C50.11-7.94 50.40-8.28 50.78-8.28L51.94-8.28C52.32-8.28 52.61-7.94 52.61-7.58L52.61-6.02ZM57.22-2.02C57.22-0.77 58.22 0.24 59.50 0.24L61.70 0.24C62.98 0.24 63.98-0.77 63.98-2.02L63.98-3.38L61.90-3.38L61.90-2.52C61.90-2.16 61.61-1.80 61.22-1.80L60.07-1.80C59.69-1.80 59.40-2.16 59.40-2.52L59.40-4.56L63.98-4.56L63.98-8.06C63.98-9.31 62.98-10.34 61.70-10.34L59.50-10.34C58.22-10.34 57.22-9.31 57.22-8.06L57.22-2.02ZM59.40-6.02L59.40-7.58C59.40-7.94 59.69-8.28 60.07-8.28L61.22-8.28C61.61-8.28 61.90-7.94 61.90-7.58L61.90-6.02ZM75.46-2.11L73.99-2.11C73.63-2.11 73.32-2.45 73.32-2.81L73.32-8.23L75.22-8.23L75.22-10.10L73.32-10.10L73.32-12.77L71.30-12.77L71.04-10.10L69.74-10.10L69.74-8.23L71.04-8.23L71.04-2.28C71.04-1.01 72.05 0 73.30 0L75.46 0ZM77.02-2.02C77.02-0.77 78.02 0.24 79.27 0.24L81.62 0.24C82.90 0.24 83.90-0.77 83.90-2.02L83.90-8.06C83.90-9.31 82.90-10.34 81.62-10.34L79.27-10.34C78.02-10.34 77.02-9.31 77.02-8.06L77.02-2.02ZM79.20-2.52L79.20-7.58C79.20-7.94 79.49-8.28 79.85-8.28L81.05-8.28C81.43-8.28 81.72-7.94 81.72-7.58L81.72-2.52C81.72-2.16 81.43-1.80 81.05-1.80L79.85-1.80C79.49-1.80 79.20-2.16 79.20-2.52ZM90.62-2.06C90.62-0.79 91.68 0.24 92.98 0.24L94.75 0.24C96.02 0.24 97.08-0.79 97.08-2.06L97.08-3.50C97.08-4.34 96.53-5.06 95.71-5.35L93.22-6.26C92.98-6.34 92.81-6.60 92.81-6.84L92.81-7.61C92.81-7.94 93.07-8.26 93.46-8.26L94.32-8.26C94.68-8.26 94.99-7.94 94.99-7.61L94.99-6.77L97.08-6.77L97.08-8.02C97.08-9.29 96.02-10.34 94.75-10.34L92.98-10.34C91.68-10.34 90.62-9.29 90.62-8.02L90.62-6.58C90.62-5.74 91.18-5.02 92.02-4.73L94.51-3.82C94.75-3.74 94.92-3.48 94.92-3.22L94.92-2.47C94.92-2.16 94.63-1.82 94.25-1.82L93.41-1.82C93.05-1.82 92.71-2.16 92.71-2.47L92.71-3.31L90.62-3.31L90.62-2.06ZM101.76 0L101.76-7.37C101.76-7.80 102.10-8.21 102.53-8.21L103.46-8.21C103.85-8.21 104.16-7.87 104.16-7.49L104.16 0L106.42 0L106.42-8.04C106.42-9.31 105.41-10.34 104.14-10.34L103.30-10.34C102.58-10.34 102.00-9.84 101.76-9.50L101.76-15.31L99.48-15.31L99.48 0ZM109.06-2.02C109.06-0.77 110.06 0.24 111.31 0.24L113.66 0.24C114.94 0.24 115.94-0.77 115.94-2.02L115.94-8.06C115.94-9.31 114.94-10.34 113.66-10.34L111.31-10.34C110.06-10.34 109.06-9.31 109.06-8.06L109.06-2.02ZM111.24-2.52L111.24-7.58C111.24-7.94 111.53-8.28 111.89-8.28L113.09-8.28C113.47-8.28 113.76-7.94 113.76-7.58L113.76-2.52C113.76-2.16 113.47-1.80 113.09-1.80L111.89-1.80C111.53-1.80 111.24-2.16 111.24-2.52ZM120.86 5.21L120.86-0.53C121.13-0.22 121.63 0.24 122.35 0.24L123.26 0.24C124.54 0.24 125.54-0.77 125.54-2.02L125.54-8.04C125.54-9.31 124.54-10.34 123.26-10.34L122.30-10.34C121.56-10.34 121.06-9.86 120.79-9.55L120.67-10.10L118.58-10.10L118.58 5.21ZM120.86-2.57L120.86-7.37C120.86-7.82 121.20-8.21 121.63-8.21L122.59-8.21C122.98-8.21 123.26-7.87 123.26-7.51L123.26-2.42C123.26-2.06 122.98-1.73 122.59-1.73L121.63-1.73C121.20-1.73 120.86-2.11 120.86-2.57Z"></path></g></g></g></g></svg>